<svg width="122" height="31" viewBox="0 0 122 31" fill="none" xmlns="http://www.w3.org/2000/svg">
<path d="M38.2 0C40 0 41 0.0999999 41.3 0.3C41.4 0.4 41.4 0.5 41.5 0.7C41.5 0.8 41.5 0.9 41.5 1C41.5 1.1 41.5 1.1 41.5 1.2C39.9 1.9 38.7 2.2 37.9 2.2C37.8 2.2 37.7 2.2 37.6 2.2C37.5 2.2 37.3 2.2 37.2 2.1C37 2.1 36.9 2.1 36.7 2.1C36.6 2.1 36.4 2.1 36.3 2.1C35.9 2.1 35.6 2.2 35.4 2.3C35.3 2.4 35.1 2.5 35 2.5C34.9 2.5 34.8 2.6 34.8 2.6C34.8 2.6 34.2 2.6 33 2.6C32.7 2.6 32.4 2.6 32.1 2.7L32 2.9C31.9 2.9 31.8 3 31.7 3.1C31.6 3.3 31.5 3.4 31.5 3.6C31.4 3.8 31.3 4 31.3 4.1C31.2 4.3 31.1 4.4 31.1 4.6C31 4.8 30.9 5 30.9 5.2C30.5 6 30.3 6.7 30.2 7.3C30.1 7.9 30 8.7 29.8 9.8C29.8 10.1 29.7 10.4 29.5 10.9C29.3 11.1 29.1 11.5 28.9 12C28.9 12.2 28.8 12.5 28.8 12.9C28.8 13 28.8 13 28.7 13.1C28.7 13.2 28.6 13.2 28.6 13.3C28.6 13.4 28.5 13.5 28.5 13.5C28.5 13.6 28.4 13.7 28.4 13.7C28.1 14.1 27.9 14.4 27.9 14.6C27.9 14.6 27.9 14.7 27.9 14.8C27.9 14.8 27.9 14.9 27.9 15C27.9 15.1 27.9 15.1 27.9 15.2C27.9 15.3 27.9 15.3 27.9 15.4C27.9 15.5 27.9 15.6 27.8 15.7C27.7 15.8 27.6 15.9 27.5 16C27.4 16.2 27.3 16.3 27.2 16.3L27.1 16.4C27.1 16.4 27.1 16.5 27 16.5C27 16.6 27 16.7 27 16.8C27 16.9 27 17 26.9 17.1C26.9 17.3 26.8 17.5 26.7 17.8C26.6 17.9 26.5 18.1 26.4 18.3C26.4 18.4 26.3 18.5 26.2 18.6C26.1 18.7 26 18.8 26 18.9C25.9 19.1 25.7 19.2 25.6 19.3C25.5 19.4 25.4 19.5 25.4 19.6C25.3 19.7 25.3 19.7 25.3 19.8L25.2 19.9C25.1 20.2 24.9 20.5 24.6 20.9C24.4 21.3 24.1 21.7 23.8 22.1C23.7 22.1 23.6 22.2 23.5 22.3C23.4 22.4 23.3 22.5 23.2 22.5C23.1 22.6 23 22.7 22.9 22.8C22.8 22.9 22.7 23 22.5 23.1C22.5 23.2 22.4 23.2 22.4 23.3C22.3 23.4 22.3 23.5 22.2 23.6C22.1 23.7 22 24 21.9 24.1C21.8 24.2 21.7 24.3 21.7 24.4C21.1 25.1 20.2 25.7 18.9 26.4C18.6 26.5 18.4 26.7 18.1 26.8C17.8 26.9 17.6 27.1 17.3 27.2C17 27.3 16.8 27.5 16.5 27.6C16.2 27.7 16 27.9 15.7 28C15.4 28.2 15 28.5 14.4 28.8C14 28.8 13.5 28.9 12.8 29.1C12.8 29.1 12.7 29.1 12.6 29.2C12.5 29.2 12.4 29.3 12.3 29.4C12.1 29.5 11.9 29.6 11.9 29.6H11.6C11.4 29.6 11.1 29.7 10.6 29.9C10.3 30 9.99999 30.1 9.79999 30.2C9.59999 30.3 9.49999 30.3 9.39999 30.4C9.19999 30.4 8.89999 30.5 8.69999 30.5C8.39999 30.5 8.19999 30.6 7.89999 30.6C7.39999 30.7 6.89999 30.7 6.39999 30.7C5.19999 30.7 4.29999 30.6 3.69999 30.4C3.59999 30.4 3.49999 30.3 3.29999 30.2C2.99999 30.1 2.69999 30 2.39999 29.8C1.69999 29.5 1.29999 29.2 1.29999 29.1C0.999988 28.7 0.799988 27.9 0.799988 26.7C0.799988 26.5 0.799988 26.4 0.799988 26.2C0.799988 26.1 0.799988 25.9 0.899988 25.7C0.899988 25.4 0.899988 25.1 0.999988 24.8C1.09999 24.1 1.29999 23.5 1.59999 23.1C1.69999 23 1.79999 22.9 1.89999 22.8C1.99999 22.7 2.09999 22.6 2.19999 22.5C2.29999 22.4 2.39999 22.3 2.49999 22.2C2.59999 22.1 2.69999 22 2.79999 21.9C2.79999 21.7 2.99999 21.5 3.09999 21.3C3.19999 21.3 3.29999 21.3 3.39999 21.3C3.49999 21.3 3.59999 21.2 3.79999 21.2C3.79999 21.3 3.79999 21.4 3.89999 21.5C3.99999 21.6 3.99999 21.7 3.99999 21.9C3.99999 22.1 3.79999 22.3 3.69999 22.5C3.59999 22.6 3.59999 22.7 3.49999 22.7C3.39999 22.8 3.39999 22.8 3.39999 22.9C3.09999 23 2.99999 23 2.99999 23.1C2.89999 23.2 2.89999 23.4 2.79999 23.6C2.69999 23.8 2.69999 23.8 2.69999 24C2.69999 24.2 2.59999 24.4 2.59999 24.6C2.59999 24.8 2.49999 25 2.49999 25.3C2.39999 25.6 2.39999 25.9 2.39999 26.2C2.39999 26.3 2.29999 26.4 2.29999 26.5C2.29999 26.6 2.29999 26.7 2.29999 26.8C2.29999 27.6 2.59999 28.2 3.09999 28.6C3.49999 28.9 4.39999 29.1 5.69999 29.3C6.29999 29.4 6.89999 29.4 7.49999 29.4C9.39999 29.4 11.2 29.1 12.8 28.5C12.9 28.5 13 28.4 13.1 28.3L13.2 28.2C13.3 28.2 13.3 28.1 13.4 28.1C13.6 28.1 13.8 28 14 27.9C14.2 27.8 14.4 27.8 14.6 27.7C14.8 27.6 15.1 27.5 15.4 27.4C15.7 27.3 16 27.2 16.3 27C16.4 26.9 16.6 26.7 16.7 26.6C16.9 26.5 17 26.3 17.3 26.1C17.6 26 17.9 25.8 18.3 25.5C18.5 25.4 18.7 25.2 18.9 25.1C19.1 24.9 19.4 24.8 19.6 24.6C19.6 24.5 19.7 24.4 19.8 24.3C19.9 24.2 20 24.1 20.1 23.9C20.2 23.6 20.5 23.3 20.8 22.9C20.8 22.9 20.9 22.8 21 22.8C21.1 22.8 21.2 22.7 21.2 22.6C21.3 22.6 21.4 22.5 21.5 22.4C21.6 22.3 21.7 22.2 21.8 22.2C22 21.9 22.2 21.5 22.4 20.8C22.5 20.4 22.6 20.1 22.6 19.9C22.7 19.7 22.7 19.5 22.8 19.4C22.8 19.3 22.9 19.1 23.1 19C23.2 18.9 23.2 18.8 23.3 18.7C23.4 18.6 23.5 18.5 23.6 18.4C23.9 18.1 24.1 17.7 24.2 17.3C24.2 17.2 24.2 17.1 24.2 16.9C24.2 16.8 24.2 16.7 24.2 16.6C24.2 16.5 24.2 16.4 24.2 16.3C24.2 16.1 24.3 15.8 24.6 15.5C24.8 15.2 24.9 15 24.9 14.8C24.9 14.8 24.9 14.6 25 14.4C25 14.3 25 14.3 25 14.2C25 14.1 25 14 25 13.9C25 13.8 25.1 13.6 25.2 13.5C25.3 13.4 25.4 13.2 25.5 13C25.8 12.6 25.9 12.3 25.9 12.1C25.9 12 25.9 12 25.9 11.9C25.9 11.8 25.9 11.7 25.9 11.6C25.9 11.4 26 11.2 26 10.9C26 10.8 26.1 10.6 26.2 10.4C26.2 10.3 26.3 10.2 26.3 10.2C26.4 10.1 26.4 10 26.5 10C26.5 9.9 26.6 9.8 26.7 9.8C26.8 9.7 26.8 9.6 26.9 9.6C27 9.5 27 9.3 27.1 9.1C27.1 8.9 27.1 8.6 27.1 8.3C27.1 8 27.1 7.6 27.2 7.2C27.2 7 27.3 6.7 27.4 6.4C27.5 6.1 27.7 5.8 27.9 5.4C28.1 5 28.2 4.7 28.4 4.4C28.4 4.3 28.5 4.1 28.5 4C28.5 3.9 28.6 3.8 28.6 3.7C28.6 3.6 28.5 3.6 28.4 3.5C28.3 3.4 28.3 3.4 28.2 3.3C28.1 3.2 27.8 3.1 27.3 3.1C27.2 3.1 27.2 3.1 27.1 3.1C27 3.1 26.9 3.1 26.8 3.1C26.6 3.2 26.3 3.2 26.1 3.2C25.9 3.3 25.6 3.3 25.4 3.3C25.3 3.3 25.2 3.4 25.1 3.4C25 3.4 24.9 3.4 24.9 3.4C24.6 3.4 24.4 3.3 24 3.2C23.7 3.1 23.4 3 23.2 3C23 3 22.8 3 22.4 3.1C22.2 3.1 22.1 3.1 21.9 3.1C21.8 3.1 21.6 3.1 21.5 3.1H20.1C19.9 3.1 19.5 3 19 2.9C18.5 2.8 18.2 2.7 18 2.7C17.9 2.7 17.7 2.8 17.3 2.9C17 3 16.8 3.1 16.6 3.1C16.5 3.1 16.5 3.1 16.3 3.1C16.2 3.1 16.1 3.1 16 3.1C15.9 3.1 15.8 3.1 15.7 3.1C15.6 3.1 15.5 3.1 15.5 3.1C14.7 3.1 14.2 3.3 13.8 3.8C13.7 3.9 13.6 4.1 13.5 4.2C13.4 4.3 13.3 4.5 13.2 4.6C13.1 4.7 13 4.9 13 5C12.9 5.1 12.8 5.3 12.7 5.4C12.5 5.8 12.1 6.2 11.5 6.7C10.8 7.3 10.4 7.6 9.99999 7.7C9.99999 7.7 9.89999 7.7 9.79999 7.7C9.29999 7.7 9.09999 7.7 9.19999 7.7L9.29999 7.2C9.39999 6.4 9.59999 6 9.99999 5.7C10.2 5.5 10.4 5.4 10.7 5.2C10.9 5 11.2 4.9 11.4 4.7C11.5 4.6 11.6 4.5 11.8 4.3C11.9 4.2 12.1 4 12.3 3.9C12.5 3.8 12.6 3.6 12.8 3.4C13 3.2 13.2 3 13.4 2.8C13.7 2.7 14.3 2.5 15 2.2C15.1 2.1 15.2 2 15.4 2C15.5 1.9 15.7 1.8 15.9 1.8C16.1 1.7 16.2 1.7 16.4 1.6C16.6 1.5 16.8 1.4 17 1.3C17.6 1.2 18.4 1 19.3 0.9C19.8 0.9 20.3 0.8 20.8 0.8C21.3 0.8 21.9 0.8 22.5 0.8C22.7 0.8 22.9 0.8 23.2 0.8C23.4 0.8 23.7 0.8 23.9 0.8C24.1 0.8 24.4 0.8 24.6 0.8C24.9 0.8 25.1 0.8 25.4 0.9C25.5 0.9 25.6 0.9 25.7 0.9C25.8 0.9 26 0.9 26.2 1C26.4 1 26.6 1.1 26.9 1.1C27.2 1.1 27.4 1.2 27.7 1.2C28.2 1.3 28.7 1.4 29.1 1.4C29.3 1.4 29.5 1.5 29.7 1.5C29.9 1.5 30 1.5 30.2 1.5C30.9 1.5 31.4 1.5 31.7 1.4C32.1 1.1 32.6 1 33.1 1C33.5 1 33.7 1 33.9 0.9C34.2 0.7 34.4 0.6 34.4 0.5C35.3 0.2 36.6 0 38.2 0Z" fill="white"/>
<path d="M33.5 12.7C33.7 12.7 33.9 12.9 34.2 13.2H34.3C34.3 13.2 34.4 13.3 34.5 13.4C34.6 13.6 34.6 13.6 34.6 13.7C34.6 13.9 34.6 14.3 34.5 14.7L34.4 15.2C34.4 15.3 34.4 15.4 34.3 15.5C34.3 15.6 34.3 15.7 34.2 15.8C34.2 16 34.2 16.2 34.3 16.3L34.5 16.7C34.6 16.7 34.7 16.7 34.8 16.8C34.9 16.8 34.9 16.8 35 16.8L35.5 16.6V17C35.5 17.1 35.5 17.2 35.5 17.2C35.5 17.2 35.5 17.3 35.5 17.4C35.4 17.8 35.3 18.1 35 18.3C34.7 18.4 34.3 18.6 33.9 19H33.7C33.6 19.2 33.4 19.4 33.2 19.6H32.9C32.7 19.7 32.5 19.8 32.2 19.9C32 19.9 31.9 20 31.7 20.1C31.5 20.2 31.3 20.2 31.1 20.3C30.6 20.4 30.3 20.5 30 20.6C29.7 20.7 29.6 20.8 29.4 20.8C29.4 20.8 29.3 20.9 29.2 21C29.1 21.1 29 21.1 28.9 21.2C28.8 21.3 28.7 21.4 28.6 21.5C28.5 21.6 28.4 21.7 28.2 21.8C28 22.2 27.8 22.8 27.6 23.5V23.7C28.1 23.9 28.3 24.1 28.5 24.1C28.9 24.1 29.6 23.8 30.5 23.1C31.4 22.4 31.9 22 32 21.6C32 21.4 32 21.2 32 21C32.1 20.6 32.6 20.4 33.7 20.4C34.2 20.4 34.4 20.5 34.3 20.8C34.3 21 34.2 21.2 34 21.4C33.9 21.5 33.8 21.6 33.7 21.6C33.6 21.7 33.5 21.7 33.4 21.8C33.4 21.9 33.3 22 33.2 22.1C33.1 22.2 33.1 22.3 33 22.5C32.8 22.8 32.6 23.1 32.5 23.5C32.4 23.5 32.3 23.5 32.3 23.5H31.8L30.5 24.3L30.2 24.6C30.1 24.6 29.9 24.7 29.7 24.8C29.5 24.9 29.4 25 29.2 25.1C29.1 25.2 29 25.2 28.9 25.3C28.8 25.4 28.7 25.4 28.6 25.5C28.5 25.6 28.4 25.6 28.3 25.7C28.2 25.8 28.1 25.8 28 25.9C27.7 26.1 27.2 26.2 26.5 26.2C25.6 26 25 25.7 25 25C25 24.8 25 24.7 25 24.6C25.2 24.1 25.5 23.5 25.8 23C26.1 22.4 26.3 21.9 26.6 21.3V20.8C26.6 20.6 26.8 20.3 27.3 19.7C27.7 19.1 28 18.6 28 18.4C28 18.3 28 18.2 28.1 18.1L28.4 17.8C28.4 17.8 28.5 17.7 28.5 17.6C28.5 17.5 28.6 17.5 28.6 17.4C28.7 17.3 28.7 17.2 28.8 17C28.8 16.8 28.9 16.7 29.1 16.6C29.2 16.5 29.3 16.4 29.4 16.4C29.5 16.4 29.5 16.3 29.6 16.3C29.7 16.2 29.8 15.9 30.1 15.4C30.2 15.3 30.3 15.3 30.4 15.2C30.4 15.2 30.5 15.1 30.6 15.1C30.7 15.1 30.7 15 30.8 15C31 14.9 31.1 14.8 31.2 14.8C31.3 14.7 31.4 14.6 31.4 14.6C31.4 14.5 31.5 14.4 31.6 14.3C31.6 14.3 31.7 14.2 31.7 14.1C31.7 14 31.8 13.9 31.8 13.8C31.9 13.7 32.2 13.5 32.6 13.2C33 12.8 33.3 12.7 33.5 12.7ZM30.1 18.1C30 18.8 30.2 19.1 30.6 19.1C31.1 19.1 31.3 19.1 31.2 19.1L31.9 18.4C32.1 18.2 32.2 18 32.3 17.7C32.3 17.4 32.3 17.1 32.1 16.8C31.9 16.5 31.7 16.4 31.4 16.4C30.8 16.4 30.3 17 30.1 18.1Z" fill="white"/>
<path d="M42.8 12.6C43 12.6 43.1 12.7 43.2 12.9C43.3 13.2 43.4 13.4 43.4 13.5C43.4 13.8 43.3 14 43.2 14.2C43 14.4 43 14.5 43 14.7C43 15.2 43.2 15.4 43.7 15.4C44 15.4 44.3 15.2 44.6 14.8C44.9 14.3 45.2 14.1 45.6 14.1C46.3 14.1 46.9 14.5 47.4 15.4C47.4 15.4 47.6 15.4 48.1 15.4C48.2 15.4 48.3 15.4 48.4 15.5C48.4 15.6 48.5 15.6 48.5 15.6C48.1 16.5 47.6 16.9 47.2 16.9C47.1 16.7 46.8 16.5 46.3 16.3C45.9 16.1 45.5 16 45.2 16C44.8 16 44.3 16.3 43.9 17C43.8 17.2 43.6 17.4 43.5 17.5C43.4 17.7 43.3 17.8 43.2 17.9C43 18.1 42.9 18.3 42.8 18.3C42.8 18.5 42.7 18.8 42.6 19.2C42.6 19.3 42.5 19.3 42.5 19.4C42.5 19.5 42.4 19.6 42.4 19.7C42.3 19.9 42.2 20.1 42.1 20.3C42.1 20.3 42 20.4 42 20.5C42 20.6 41.9 20.6 41.9 20.7L41.1 21.5C41.1 21.6 41 21.6 41 21.7C41 21.8 40.9 21.8 40.9 21.9C40.9 22 40.8 22.1 40.8 22.3C40.8 22.4 40.7 22.6 40.7 22.8L40.4 23.1C40.2 23.2 40.2 23.3 40.2 23.4V23.6C40.2 23.6 40.1 23.7 40 23.8C39.9 23.9 39.8 24 39.6 24.1L39.5 24.2C39.2 24 39.1 24 39 24.2C38.9 24.3 38.8 24.4 38.6 24.6C38.4 24.8 38.3 24.9 38.1 25.2C37.6 25.8 37.1 26.2 36.8 26.3C36.6 25.9 36.4 25.5 36.4 25.1C36.4 24.6 36.5 24.3 36.7 24.1C36.8 24 36.9 23.9 37 23.8C37.1 23.7 37.2 23.6 37.2 23.6L37.4 23.4C37.4 23.4 37.4 23.3 37.5 23.2C37.6 23.1 37.6 23 37.6 22.8C37.7 22.6 37.8 22.5 38 22.4C38 22.3 38.1 22.2 38.1 22C38.1 21.9 38.1 21.8 38.2 21.7C38.2 21.6 38.2 21.5 38.3 21.4C38.3 21.4 38.3 21.3 38.4 21.2C38.4 21.1 38.5 21 38.5 20.9C38.5 20.8 38.6 20.7 38.7 20.6C38.8 20.5 38.8 20.3 38.9 20.2C39.2 19.7 39.3 19.3 39.3 18.9C39.3 18.6 39.4 18.3 39.7 18C40 17.7 40.1 17.4 40.1 17.1C40.1 16.7 39.9 16.5 39.5 16.5L39.2 16.6L39.1 16.7C38.9 16.9 38.6 17.1 38.5 17.3C38.4 17.5 38.3 17.6 38.3 17.7C38.2 17.7 38.1 17.8 37.9 17.8C37.8 17.8 37.6 17.9 37.4 18C37.1 18.1 36.8 18.4 36.7 18.8C36.6 19 36.5 19.3 36.4 19.4C36.3 19.6 36.3 19.7 36.2 19.7C36 19.8 35.6 20 35.3 20.2C35.1 20.6 34.7 21 34.3 21.4H34L33.9 21C34 20.9 34 20.8 34 20.8C34.1 20.7 34.2 20.6 34.3 20.5C34.4 20.4 34.5 20.3 34.7 20.1C34.8 20 35 19.8 35.1 19.7C35.3 19.5 35.4 19.4 35.6 19.2C35.6 19.2 35.7 19.1 35.7 19C35.7 18.9 35.8 18.8 35.8 18.7C35.8 18.6 35.9 18.5 36 18.4C36.1 18.3 36.1 18.2 36.2 18.1C36.4 18 36.7 17.8 37.2 17.4C37.2 17.3 37.3 17.2 37.3 17.2C37.3 17.2 37.3 17.1 37.4 17C37.4 16.9 37.4 16.9 37.5 16.8C37.6 16.8 37.7 16.7 37.9 16.6C37.9 16.6 38 16.5 38.1 16.4C38.2 16.3 38.3 16.3 38.4 16.2C38.4 16.1 38.6 15.9 38.8 15.5C39.8 14.7 40.5 14.2 40.9 14C41 13.8 41.1 13.7 41.2 13.5C41.3 13.3 41.4 13.2 41.6 13L42.8 12.6Z" fill="white"/>
<path d="M53.7 12.6C53.9 12.6 54 12.7 54.1 12.9C54.2 13.2 54.3 13.4 54.3 13.5C54.3 13.8 54.2 14 54.1 14.2C53.9 14.4 53.9 14.5 53.9 14.7C53.9 15.2 54.1 15.4 54.6 15.4C54.9 15.4 55.2 15.2 55.5 14.8C55.8 14.3 56.1 14.1 56.5 14.1C57.2 14.1 57.8 14.5 58.3 15.4C58.3 15.4 58.5 15.4 59 15.4C59.1 15.4 59.2 15.4 59.3 15.5C59.3 15.6 59.4 15.6 59.4 15.6C59 16.5 58.5 16.9 58.1 16.9C58 16.7 57.7 16.5 57.2 16.3C56.8 16.1 56.4 16 56.1 16C55.7 16 55.2 16.3 54.8 17C54.7 17.2 54.5 17.4 54.4 17.5C54.3 17.7 54.2 17.8 54.1 17.9C53.9 18.1 53.8 18.3 53.7 18.3C53.7 18.5 53.6 18.8 53.5 19.2C53.5 19.3 53.4 19.3 53.4 19.4C53.4 19.5 53.3 19.6 53.3 19.7C53.2 19.9 53.1 20.1 53 20.3C53 20.3 52.9 20.4 52.9 20.5C52.9 20.6 52.8 20.6 52.8 20.7L52 21.5C52 21.6 51.9 21.6 51.9 21.7C51.9 21.8 51.8 21.8 51.8 21.9C51.8 22 51.7 22.1 51.7 22.3C51.7 22.4 51.6 22.6 51.6 22.8H51C50.8 22.9 50.8 23 50.8 23.1V23.3C50.8 23.3 50.7 23.4 50.6 23.5C50.5 23.6 50.4 23.7 50.2 23.8L50.1 23.9C50.1 24 50 24 49.9 24.2C49.8 24.3 49.7 24.4 49.5 24.6C49.3 24.8 49.2 24.9 49 25.2C48.5 25.8 48 26.2 47.7 26.3C47.5 25.9 47.3 25.5 47.3 25.1C47.3 24.6 47.4 24.3 47.6 24.1C47.7 24 47.8 23.9 47.9 23.8C48 23.7 48.1 23.6 48.1 23.6L48.3 23.4C48.3 23.4 48.3 23.3 48.4 23.2C48.5 23.1 48.5 23 48.5 22.8C48.6 22.6 48.7 22.5 48.9 22.4C48.9 22.3 49 22.2 49 22C49 21.9 49 21.8 49.1 21.7C49.1 21.6 49.1 21.5 49.2 21.4C49.2 21.4 49.2 21.3 49.3 21.2C49.3 21.1 49.4 21 49.4 20.9C49.4 20.8 49.5 20.7 49.6 20.6C49.7 20.5 49.7 20.3 49.8 20.2C50.1 19.7 50.2 19.3 50.2 18.9C50.2 18.6 50.3 18.3 50.6 18C50.9 17.7 51 17.4 51 17.1C51 16.7 50.8 16.5 50.4 16.5L50.1 16.6L50 16.7C49.8 16.9 49.5 17.1 49.4 17.3C49.3 17.5 49.2 17.6 49.2 17.7C49.1 17.7 49 17.8 48.8 17.8C48.7 17.8 48.5 17.9 48.3 18C48 18.1 47.7 18.4 47.6 18.8C47.5 19 47.4 19.3 47.3 19.4C47.2 19.6 47.2 19.7 47.1 19.7C46.9 19.8 46.5 20 46.2 20.2C46 20.6 45.6 21 45.2 21.4H45L44.8 21C44.9 20.9 44.9 20.8 44.9 20.8C45 20.7 45.1 20.6 45.2 20.5C45.3 20.4 45.4 20.3 45.6 20.1C45.7 20 45.9 19.8 46 19.7C46.2 19.5 46.3 19.4 46.5 19.2C46.5 19.2 46.6 19.1 46.6 19C46.6 18.9 46.7 18.8 46.7 18.7C46.7 18.6 46.8 18.5 46.9 18.4C47 18.3 47 18.2 47.1 18.1C47.3 18 47.6 17.8 48.1 17.4C48.1 17.3 48.2 17.2 48.2 17.2C48.2 17.2 48.2 17.1 48.3 17C48.3 16.9 48.3 16.9 48.4 16.8C48.5 16.8 48.6 16.7 48.8 16.6C48.8 16.6 48.9 16.5 49 16.4C49.1 16.3 49.2 16.3 49.3 16.2C49.3 16.1 49.5 15.9 49.7 15.5C50.7 14.7 51.4 14.2 51.8 14C51.9 13.8 52 13.7 52.1 13.5C52.2 13.3 52.3 13.2 52.5 13L53.7 12.6Z" fill="white"/>
<path d="M66.1 12.9C66.2 12.9 66.3 13 66.4 13C66.5 13 66.6 13 66.6 13.1C66.7 13.1 66.8 13.2 66.9 13.3C66.9 13.4 67 13.5 67 13.6C67 13.7 67 13.8 67 13.9C67 14 67 14.1 67 14.2C67.1 14.9 67 15.4 66.9 15.5C66.8 15.6 66.7 15.7 66.7 15.8C66.7 15.9 66.6 16 66.5 16.1C66.5 16.2 66.4 16.2 66.4 16.3C66.4 16.3 66.4 16.4 66.3 16.4C66.3 16.7 66.3 17.1 66 17.5C65.8 17.9 65.6 18.2 65.3 18.5C65.3 18.5 65.3 18.6 65.2 18.7C65.2 18.8 65.2 18.8 65.1 18.9C65.1 19.1 65 19.2 64.9 19.4C64.9 19.4 64.8 19.5 64.8 19.6C64.7 19.7 64.6 19.8 64.4 19.9C64.2 20 64.1 20.2 64.1 20.4V20.6C64.1 20.7 64.2 20.8 64.2 20.9C64.2 21 64.2 21.1 64.1 21.3C64.1 21.4 64.1 21.4 64 21.5C64 21.6 63.9 21.6 63.9 21.7C63.9 21.8 63.8 21.9 63.8 21.9C63.8 22 63.8 22 63.7 22.1C63.7 22.2 63.7 22.3 63.6 22.3C63.5 22.3 63.6 22.4 63.6 22.5C63.6 22.9 63.8 23.2 64.1 23.4C64.4 23.6 64.7 23.8 65.1 23.8C65.2 23.8 65.4 23.7 65.5 23.6C65.6 23.6 65.7 23.5 65.7 23.5C65.8 23.5 65.8 23.5 65.9 23.5C65.9 23.5 66.1 23.6 66.4 23.9C66.4 24.1 66.4 24.4 66.3 24.7C66.2 24.8 66.1 24.9 65.9 25C65.8 25 65.7 25.1 65.6 25.1C65.5 25.1 65.5 25.2 65.4 25.2C65.4 25.2 65.3 25.3 65.3 25.4C65.3 25.5 65.2 25.5 65.1 25.7C65 25.9 64.9 26 64.7 26C64.3 26.3 63.8 26.4 63.2 26.4C62.8 26.4 62.4 26.3 61.9 26C61.4 25.7 61.1 25.6 60.9 25.6C60.4 25.6 59.8 25.8 58.9 26.1L58.7 26.3L58.4 26.4C56.9 26.5 56 26 55.9 24.9C56 24.7 56.1 24.3 56.1 23.7C56.1 23.5 56.1 23.2 56.4 22.9C56.7 22.5 56.9 22.2 56.9 22.1C56.9 22 57 21.8 57 21.7C57 21.5 57.1 21.4 57.1 21.2C57.1 21 57.2 20.8 57.3 20.6C57.4 20.4 57.5 20.2 57.6 19.9C57.6 19.9 57.7 19.8 57.8 19.7C57.9 19.6 57.9 19.6 58 19.5C58 19.4 58.1 19.4 58.2 19.3C58.3 19.2 58.3 19.1 58.4 19C58.4 19 58.5 18.9 58.5 18.7C58.5 18.7 58.5 18.6 58.6 18.5C58.7 18.4 58.6 18.4 58.7 18.3C58.7 18.2 58.8 18.1 59 18C59 18 59.1 17.9 59.2 17.9C59.3 17.9 59.3 17.8 59.4 17.8C59.5 17.8 59.5 17.7 59.6 17.7C59.7 17.7 59.7 17.6 59.8 17.6C59.9 17.5 60 17.5 60 17.5C60.2 17 60.6 16.5 61.2 16C61.9 15.4 62.4 15.1 62.8 15.1C62.8 15.1 63.1 15 63.5 14.9C63.9 14.8 64.2 14.7 64.2 14.7C64.3 14.6 64.4 14.5 64.6 14.4C64.7 14.3 64.9 14.2 65 14.1C65.3 13.6 65.7 13.3 66.1 12.9ZM59.7 21.3V21.5C59.7 21.5 59.7 21.6 59.7 21.7C59.6 21.7 59.5 21.8 59.4 21.9C59.3 22 59.2 22.1 59.1 22.2C58.9 22.4 58.7 22.6 58.6 22.8C58.5 22.9 58.4 23 58.4 23.1C58.3 23.2 58.3 23.3 58.2 23.4C58.1 23.6 58.1 23.9 58.1 24C58.1 24 58.2 24.1 58.3 24.3C58.3 24.3 58.4 24.4 58.5 24.5C58.6 24.6 58.6 24.6 58.7 24.7C58.7 24.7 58.8 24.8 58.9 24.8C59 24.8 59 24.9 59.1 24.9C59.2 25 59.3 25 59.4 25C60.1 25 60.6 24.9 60.8 24.6C60.8 24.6 60.9 24.5 60.9 24.4C60.9 24.3 61 24.3 61 24.2L61.2 23.9C61.3 23.9 61.4 23.8 61.5 23.7C61.6 23.6 61.7 23.6 61.8 23.5C62 23.4 62.2 23.2 62.3 22.9C62.3 22.8 62.4 22.6 62.4 22.4C62.4 22.3 62.4 22.2 62.4 22.1C62.4 22 62.4 21.9 62.4 21.8V21.2C62.4 21 62.4 20.9 62.5 20.8C62.5 20.8 62.5 20.7 62.6 20.5C62.7 20.3 62.8 20.1 63 19.7C63.2 19.3 63.3 18.8 63.2 18.2C63.1 17.6 62.9 17.3 62.4 17.3C62 17.3 61.4 17.8 60.6 18.9C60 20 59.7 20.8 59.7 21.3Z" fill="white"/>
<path d="M88 1.1C88.1 1.1 88.2 1.2 88.3 1.3C88.4 1.4 88.5 1.4 88.7 1.5V3.7C88.7 3.8 88.6 3.9 88.6 4C88.5 4.1 88.5 4.3 88.4 4.5C88.4 4.8 88.4 5.2 88.3 5.7C88.3 6.2 88.2 6.7 88.1 7.3C88.1 7.3 88.1 7.4 88 7.4C88 7.4 87.9 7.5 87.9 7.6C87.8 7.8 87.8 7.9 87.8 8C87.8 8 87.8 8.1 87.8 8.2C87.8 8.3 87.8 8.4 87.8 8.5C87.8 8.7 87.7 9.1 87.6 9.7C87.4 10.3 87.4 10.7 87.4 11C87.4 11.1 87.4 11.2 87.5 11.3C87.5 11.4 87.5 11.6 87.6 11.7C87.6 11.9 87.6 12.1 87.5 12.3L87.3 12.9C87.3 13.1 87.3 13.4 87.3 13.7C87.3 14 87.3 14.3 87.2 14.7C87.2 14.8 87.2 15 87.1 15.2C87 15.4 87 15.7 86.9 16.1C86.5 17.9 86.3 19.2 86.4 19.9C86.4 20.1 86.5 20.3 86.5 20.5C86.5 20.7 86.6 20.8 86.6 20.9C86.7 20.9 86.8 21 86.9 21.1H87.2C87.3 21.1 87.3 21.2 87.4 21.2C87.7 21.2 87.9 20.9 88.1 20.4C88.2 20.2 88.2 20.1 88.3 19.9C88.4 19.7 88.4 19.5 88.4 19.4C88.7 19 89.1 18.3 89.6 17.5C89.7 17.2 89.8 16.7 90 16.1C90.1 16 90.3 15.7 90.5 15.3C90.5 15.2 90.6 15 90.7 14.8C90.8 14.6 90.9 14.4 91 14.1C91.1 14 91.1 14 91.2 13.9C91.3 13.8 91.3 13.7 91.4 13.6C91.4 13.5 91.4 13.2 91.5 12.9C91.6 12.8 91.8 12.6 92.1 12.3C92.1 12.2 92.2 12.1 92.2 11.9C92.3 11.7 92.3 11.5 92.4 11.3C92.5 11.2 92.7 11 92.9 10.9C93 10.8 93.2 10.7 93.2 10.7C93.3 10.6 93.3 10.6 93.4 10.5C93.5 10.3 93.8 10 94.1 9.6C94.3 9.5 94.6 9.2 94.9 8.8C94.9 8.7 94.9 8.5 95 8.3C95 8.1 95.1 7.8 95.1 7.6C95.2 7.5 95.3 7.3 95.6 7.1C95.9 7 96 6.9 96.1 6.8C96.1 6.6 96.2 6.3 96.4 5.9C96.9 5 97.8 4.3 99.1 4C99.2 4 99.3 4.2 99.5 4.6C99.5 4.7 99.5 5 99.4 5.3C99.3 5.5 99.3 5.6 99.3 5.7C99.3 5.8 99.3 5.9 99.2 5.9V6.8C99.2 7 99.2 7.2 99.2 7.4C99 7.4 98.9 7.7 98.7 8C98.6 8.3 98.5 8.7 98.4 9.1C98.3 9.5 98.1 10 97.9 10.6C97.8 10.8 97.6 11 97.3 11.2C97.1 11.3 97 11.4 96.9 11.4C96.8 11.4 96.6 11.2 96.5 10.8C96.5 10.7 96.4 10.6 96.3 10.5C96.2 10.4 96.1 10.3 96 10.2C95.7 10.2 95.3 10.4 94.9 10.6C94.9 10.8 94.8 11 94.7 11.4C94.6 11.5 94.5 11.6 94.4 11.7C94.3 11.8 94.1 12 94 12.1C94 12.2 93.9 12.4 93.8 12.5C93.7 12.7 93.7 12.9 93.5 13.1C93.4 13.1 93.3 13.2 93.1 13.4C93 13.7 92.9 14 92.7 14.4C92.6 14.8 92.4 15.3 92.2 15.8C92.1 15.9 91.9 16.1 91.8 16.4C91.6 16.6 91.4 16.9 91.2 17.2C91.2 17.4 91.1 17.6 91 17.9C90.9 18.2 90.8 18.5 90.6 18.8C90.5 18.9 90.3 19 90.2 19.2C90.2 19.4 90.1 19.6 90 20C89.8 20.2 89.5 20.5 89.2 20.9C89.1 21.2 88.9 21.7 88.6 22.5C88.5 22.7 88.3 22.9 88.1 23.2C87.9 23.5 87.7 23.8 87.5 24.2C87.4 24.4 87.3 24.6 87.2 24.8C87.1 25.1 87 25.4 86.9 25.7C86.9 25.8 86.8 25.9 86.9 26C86.9 26.1 86.9 26.3 86.9 26.4C87 26.9 86.7 27.5 86.2 27.9C86 28.1 85.7 28.2 85.5 28.4C85.3 28.6 85 28.7 84.8 28.9L84.7 29H84.2C84.1 28.8 83.9 28.4 83.7 27.9C83.7 27.7 83.7 27.5 83.8 27.3C83.8 27.1 83.9 27 83.9 26.9C83.9 26.8 84 26.7 84 26.7C84 25.9 84.1 24.6 84.3 23C84.4 22.6 84.6 22 84.9 21.2C84.9 20.6 84.9 19.7 84.9 18.4C84.9 18.4 85 18.2 85 18C85 17.8 85.1 17.4 85.3 17C85.4 16.7 85.4 16.4 85.5 16.2C85.5 16 85.5 15.7 85.5 15.5C85.5 15.2 85.4 15 85.2 14.9C85.1 14.8 85 14.7 84.9 14.7C84.8 14.6 84.7 14.6 84.6 14.5C84.4 14.5 84.2 14.5 84 14.6C83.8 14.7 83.6 15.1 83.3 15.6C83 16.1 82.8 16.5 82.7 16.6C82.5 16.8 82.2 17 81.8 17.4C81.6 17.8 81.3 18.3 80.9 18.9C80.3 19.5 79.3 20.5 77.9 21.8C77.8 21.9 77.7 22.1 77.6 22.3C77.5 22.5 77.3 22.7 77.1 22.9C76.7 23.1 76.1 23.4 75.5 23.8C75.4 24 75.2 24.3 74.9 24.7C74.7 24.8 74.5 24.9 74.2 25C73.9 25.1 73.6 25.3 73.2 25.6C73.1 25.8 72.9 26 72.7 26.4C72.6 26.4 72.5 26.5 72.3 26.5C72.2 26.5 72 26.6 71.8 26.6C71.6 26.8 71.3 27 71 27.2C70.7 27.4 70.4 27.6 70 27.8H69.9C69.8 27.8 69.8 27.8 69.7 27.8C69.6 27.8 69.4 27.9 69.1 28.1C68.8 28.3 68.6 28.4 68.5 28.4C68.3 28.4 68 28.5 67.6 28.5C67.2 28.8 66.6 29.1 65.8 29.5C65.4 29.6 64.9 29.7 64.4 29.7C62.6 29.7 61.6 29.3 61.5 28.6C61.5 28.4 61.6 28.2 61.9 28C62.3 27.7 62.6 27.5 62.6 27.5C62.7 27.4 62.8 27.2 62.9 26.8C63 26.5 63.2 26.3 63.4 26.3C63.4 26.3 63.5 26.3 63.7 26.3C63.7 26.3 64 26.4 64.7 26.6C65.2 26.7 65.9 26.8 66.9 26.8C68.3 26.8 69.2 26.7 69.8 26.5C70 26.3 70.3 26.1 70.7 25.9C71 25.8 71.4 25.7 72.1 25.5C72.2 25.4 72.4 25.2 72.7 25C72.8 24.9 73 24.9 73.2 24.7C73.4 24.6 73.7 24.5 74 24.3C74.2 24 74.6 23.6 75 23.2C75.1 23.2 75.2 23.1 75.3 23C75.4 22.9 75.5 22.9 75.7 22.8C76.1 22.5 76.5 22.1 76.9 21.6C77.2 21.2 77.5 20.9 77.7 20.7C77.9 20.5 78 20.4 78 20.3C78.2 20.1 78.5 19.9 78.8 19.6C79.1 19.3 79.4 18.9 79.8 18.5C79.9 18.3 80 18 80.2 17.6C80.4 17.3 80.6 16.9 80.9 16.4C81.1 16.3 81.3 16 81.7 15.5C81.7 15.3 81.8 15.1 81.9 14.9C82 14.7 82.1 14.3 82.2 14C82.5 13.6 82.8 13.1 83.1 12.4C83.1 12.3 83.1 12.1 83.2 11.8C83.3 11.7 83.3 11.6 83.4 11.4C83.5 11.3 83.6 11.1 83.7 10.9C83.7 10.7 83.8 10.5 83.9 10.2C84 9.9 84.1 9.6 84.2 9.2C84.4 9 84.7 8.6 85 8.1C85 8 85 7.5 85 6.6C85 6.3 85 6 85.1 5.7C85.2 5.4 85.3 5.2 85.3 5C85.3 4.9 85.3 4.6 85.2 4.1C85.2 3.8 85.2 3.6 85.2 3.5H85.3C85.3 3.5 85.4 3.4 85.5 3.3C85.6 3.2 85.8 3 86 2.8C86.4 2.3 86.6 2.1 86.7 2C86.7 1.9 86.7 1.8 86.8 1.7C87 1.6 87.4 1.4 88 1.1Z" fill="white"/>
<path d="M98.8 12.5C98.9 12.5 99 12.5 99.1 12.5C99.2 12.5 99.3 12.5 99.5 12.6C99.8 12.7 100 12.7 100.2 12.7C100.6 12.7 100.8 13 100.8 13.5C100.8 13.7 100.9 13.9 100.9 14.1C100.9 14.3 100.9 14.5 100.9 14.7L101 15C101 15.1 101 15.3 101 15.6C101 15.8 101 15.9 100.9 16.1C100.9 16.3 100.8 16.5 100.8 16.8C100.7 17.4 100.6 17.8 100.6 18.1C100.6 18.5 100.6 18.8 100.5 19C100.4 19.1 100.3 19.3 100.3 19.4C100.2 19.5 100.2 19.7 100.1 19.8C100 20 99.9 20.4 99.7 20.8C99.7 20.8 99.6 20.9 99.5 21C99.4 21.1 99.3 21.2 99.2 21.3C99.2 21.4 99.1 21.5 99.1 21.7C99.1 21.9 99 22.1 98.9 22.3C98.8 22.4 98.7 22.5 98.5 22.7C98.4 22.8 98.2 23 98 23.2C96.6 25.3 95.3 26.4 94.1 26.4C93.7 26.4 93.2 26.1 92.5 25.6C91.8 25.1 91.5 24.6 91.5 24.3C91.5 24.2 91.6 23.8 91.7 23.1C91.9 22.4 92 22 92 21.9C92.1 21.8 92.2 21.6 92.3 21.5C92.3 21.4 92.3 21.3 92.3 21.2C92.3 21.1 92.3 20.9 92.3 20.8C92.4 20.7 92.6 20.4 92.8 20.1C92.8 20 92.9 19.9 92.9 19.7C92.9 19.6 93 19.4 93 19.2C93.1 19.1 93.1 19 93.2 18.8C93.3 18.7 93.4 18.5 93.5 18.3C93.5 18.1 93.6 17.9 93.7 17.6C93.8 17.5 93.9 17.4 94 17.3C94.1 17.2 94.3 17.1 94.4 16.9C94.6 16.7 94.8 16.4 95 16C95.2 15.7 95.5 15.3 95.8 14.9C96 14.8 96.3 14.6 96.6 14.3C96.8 14 97 13.7 97.1 13.6C97.2 13.4 97.3 13.3 97.3 13.3C97.9 12.7 98.3 12.5 98.8 12.5ZM97 16.5C96.9 16.7 96.8 16.9 96.7 17.1C96.6 17.3 96.5 17.5 96.4 17.7C96.2 17.9 96 18.1 95.8 18.3C95.6 18.6 95.3 18.9 95 19.3L94.8 19.4C94.8 19.6 94.7 19.9 94.6 20.2C94.5 20.5 94.5 20.8 94.4 21.2C94.3 21.4 94.2 21.6 94.1 21.7C94 21.8 93.9 22 93.8 22.2C93.5 22.7 93.4 23.1 93.4 23.2C93.4 23.4 93.6 23.7 93.9 24C94.2 24.4 94.5 24.5 94.7 24.5C95.5 24.5 96 24.3 96.3 23.9C96.3 23.7 96.4 23.6 96.5 23.4C96.6 23.2 96.6 23.1 96.7 22.9C96.7 22.9 96.8 22.8 96.9 22.8C97 22.8 97.1 22.7 97.2 22.6C97.5 22.4 97.7 21.9 97.8 21.3C97.9 20.5 98 20 98.1 19.9C98.2 19.7 98.4 19.4 98.7 19.1C98.8 18.9 98.9 18.4 99 17.6L98.9 17.5V16.6C98.8 16.3 98.6 16.1 98.3 16.1C97.6 16.1 97.2 16.2 97 16.5Z" fill="white"/>
<path d="M112.7 12.6C113.1 12.6 113.3 12.9 113.3 13.3C113.3 13.4 113.3 13.6 113.3 13.7C113.3 13.8 113.2 14 113.2 14.2V14.4L113.3 14.6C113.4 15.2 113.2 15.7 112.9 16.2C112.8 16.2 112.7 16.3 112.6 16.4C112.6 16.4 112.5 16.5 112.4 16.5C112.3 16.5 112.3 16.6 112.2 16.6C112.2 16.6 112.1 16.7 112 16.8C111.9 16.9 111.9 17 111.8 17.1C111.7 17.2 111.6 17.3 111.5 17.4C111.4 17.5 111.3 17.6 111.1 17.7C111.1 17.8 111 17.9 110.9 18C110.8 18.1 110.7 18.2 110.6 18.4C110.5 18.6 110.4 18.7 110.3 18.8C110.2 18.9 110.1 19.1 110 19.3C109.9 19.4 109.7 19.5 109.4 19.7C109.4 19.8 109.3 19.9 109.2 20C109.2 20.1 109.1 20.2 109 20.3C109 20.3 108.9 20.4 108.8 20.5C108.7 20.6 108.7 20.6 108.6 20.7L108.1 21.2C108.1 21.3 108 21.4 108 21.4C108 21.5 107.9 21.5 107.9 21.6C107.9 21.7 107.8 21.7 107.8 21.8C107.8 21.9 107.7 21.9 107.7 22C107.6 22.1 107.5 22.2 107.3 22.4C107.2 22.5 107.2 22.5 107.1 22.6C107 22.7 107 22.7 106.9 22.8C106.7 23.1 106.4 23.6 105.9 24.1C105.9 24.1 105.9 24.2 105.8 24.2C105.8 24.2 105.8 24.3 105.7 24.3C105.7 24.3 105.7 24.4 105.6 24.5C105.6 24.6 105.6 24.6 105.5 24.7C105.5 24.8 105.4 24.8 105.2 24.9C105.1 25 105 25.1 105 25.1C105 25.2 104.9 25.3 104.8 25.4C104.8 25.5 104.7 25.6 104.6 25.7L103.6 26.5L103.2 26.6L103.1 26.5C103.1 26.5 103.1 26.4 103 26.4C102.9 26.4 103 26.4 102.9 26.3C102.9 26.1 103 25.9 103.1 25.7C103.2 25.4 103.3 25.1 103.4 24.8L103.6 24.6C103.6 24.5 103.7 24.4 103.7 24.2C103.7 24.1 103.8 23.9 103.8 23.7C103.8 23.5 103.9 23.3 104 23.2C104.1 23 104.1 22.8 104.2 22.7C104.3 22.5 104.3 22.3 104.3 21.9C104.3 21.8 104.3 21.7 104.4 21.5L104.5 21.2C104.5 21.1 104.4 21 104.3 20.8C104.3 20.4 104.3 20 104.4 19.7C104.4 19.4 104.5 19.1 104.5 18.8C104.5 18.7 104.6 18.5 104.7 18.4C104.8 18.2 104.8 18 104.9 17.8C104.9 17.6 105 17.4 105.1 17.2C105.2 17 105.2 16.7 105.3 16.5V16.2C105 16.1 104.9 16 104.9 16C104.9 16 104.7 16.1 104.3 16.2H104.1C104 16.2 103.9 16.5 103.7 17C103.6 17.1 103.4 17.4 103.2 17.9C103.2 18 103.2 18 103.2 18.1C103.2 18.1 103.2 18.1 103.2 18.2C102.5 18.5 102.1 18.6 102.2 18.6H101.8C101.8 18.1 101.8 17.6 101.9 17.1C102 16.7 102.3 16.2 102.7 15.8C103.1 15.3 103.4 14.8 103.5 14.6L105.1 14.2L105.3 14C105.3 14 105.5 14 105.7 14H106C106.2 14 106.3 14 106.3 14L106.6 13.8C106.7 13.8 106.8 13.8 107 13.8C107.1 13.8 107.2 13.8 107.5 13.8C107.7 13.8 107.9 13.8 108 13.9C108.1 13.9 108.3 14 108.4 14.1C108.4 14.2 108.4 14.3 108.4 14.5C108.4 14.5 108.4 14.6 108.5 14.7C108.5 14.8 108.5 14.8 108.6 14.9C108.4 15.1 108.1 15.3 107.9 15.5L107.2 16.2V16.5C107.2 16.5 107.2 16.6 107.2 16.7C107.2 16.8 107.2 16.8 107.2 16.9L107.1 17.1L106.9 17.3V17.4C106.9 17.4 106.9 17.5 106.8 17.6C106.8 17.6 106.8 17.7 106.8 17.8C106.8 17.9 106.8 18 106.7 18.1C106.7 18.1 106.7 18.2 106.6 18.3C106.6 18.4 106.5 18.4 106.5 18.5C106.5 18.7 106.4 18.8 106.3 19C106.4 19.1 106.4 19.5 106.3 20.2C106.3 20.2 106.3 20.3 106.3 20.4C106.3 20.5 106.3 20.6 106.3 20.7C106.3 20.8 106.3 20.9 106.3 21.1C106.3 21.2 106.3 21.4 106.3 21.5C106.3 22.2 106.3 22.6 106.4 22.6C106.7 22.6 107.1 22.2 107.7 21.3C108 20.9 108.2 20.6 108.3 20.3C108.5 20 108.6 19.8 108.6 19.6C108.7 19.4 109 19 109.5 18.6C110.1 18.2 110.5 17.6 110.7 16.9C110.7 16.9 110.7 16.8 110.7 16.6C110.7 16.4 110.7 16.1 110.6 16C110.5 15.8 110.4 15.6 110.3 15.5L110 15C110 14.9 109.9 14.8 109.9 14.7C109.9 14.6 109.9 14.5 109.8 14.4C110 14.4 110.1 14.3 110.3 14.2C110.5 14.1 110.6 14.1 110.8 14.1H110.9C110.9 14.1 111 14 111.1 13.9C111.2 13.8 111.2 13.8 111.3 13.7C111.5 13.6 111.7 13.5 111.9 13.3C112.3 12.7 112.6 12.6 112.7 12.6Z" fill="white"/>
<path d="M120.3 12.9C120.4 12.9 120.5 13 120.6 13C120.7 13 120.8 13 120.8 13.1C120.9 13.1 121 13.2 121.1 13.3C121.1 13.4 121.2 13.5 121.2 13.6C121.2 13.7 121.2 13.8 121.2 13.9C121.2 14 121.2 14.1 121.2 14.2C121.3 14.9 121.2 15.4 121.1 15.5C121 15.6 120.9 15.7 120.9 15.8C120.9 15.9 120.8 16 120.7 16.1C120.7 16.2 120.6 16.2 120.6 16.3C120.6 16.4 120.6 16.4 120.5 16.4C120.5 16.7 120.5 17.1 120.2 17.5C120 17.9 119.8 18.2 119.5 18.5C119.5 18.5 119.5 18.6 119.4 18.7C119.4 18.8 119.4 18.8 119.3 18.9C119.3 19.1 119.2 19.2 119.1 19.4C119.1 19.4 119 19.5 119 19.6C118.9 19.7 118.8 19.8 118.6 19.9C118.4 20 118.3 20.2 118.3 20.4V20.6C118.3 20.7 118.4 20.8 118.4 20.9C118.4 21 118.4 21.1 118.3 21.3C118.3 21.4 118.3 21.4 118.2 21.5C118.2 21.6 118.1 21.6 118.1 21.7C118.1 21.8 118 21.9 118 21.9C118 21.9 118 22 117.9 22.1C117.8 22.2 117.9 22.3 117.8 22.3C117.7 22.3 117.8 22.4 117.8 22.5C117.8 22.9 118 23.2 118.3 23.4C118.6 23.6 118.9 23.8 119.3 23.8C119.4 23.8 119.6 23.7 119.7 23.6C119.8 23.6 119.9 23.5 119.9 23.5C120 23.5 120 23.5 120.1 23.5C120.1 23.5 120.3 23.6 120.6 23.9C120.6 24.1 120.6 24.4 120.5 24.7C120.4 24.8 120.3 24.9 120.1 25C120 25 119.9 25.1 119.8 25.1C119.7 25.1 119.7 25.2 119.6 25.2C119.6 25.2 119.5 25.3 119.5 25.4C119.5 25.5 119.4 25.5 119.3 25.7C119.2 25.9 119.1 26 118.9 26C118.5 26.3 118 26.4 117.4 26.4C117 26.4 116.6 26.3 116.1 26C115.6 25.7 115.3 25.6 115.1 25.6C114.6 25.6 114 25.8 113.1 26.1L112.9 26.3L112.6 26.4C111.1 26.5 110.2 26 110.1 24.9C110.2 24.7 110.3 24.3 110.3 23.7C110.3 23.5 110.3 23.2 110.6 22.9C110.9 22.5 111.1 22.2 111.1 22.1C111.1 22 111.2 21.8 111.2 21.7C111.2 21.5 111.3 21.4 111.3 21.2C111.3 21 111.4 20.8 111.5 20.6C111.6 20.4 111.7 20.2 111.8 19.9C111.8 19.9 111.9 19.8 112 19.7C112.1 19.6 112.1 19.6 112.2 19.5C112.2 19.4 112.3 19.4 112.4 19.3C112.5 19.2 112.5 19.1 112.6 19C112.6 19 112.7 18.9 112.7 18.7C112.7 18.7 112.7 18.6 112.8 18.5C112.8 18.4 112.8 18.4 112.9 18.3C112.9 18.2 113 18.1 113.2 18C113.2 18 113.3 17.9 113.4 17.9C113.5 17.9 113.5 17.8 113.6 17.8C113.7 17.8 113.7 17.7 113.8 17.7C113.9 17.7 113.9 17.6 114 17.6C114.1 17.5 114.2 17.5 114.2 17.5C114.4 17 114.8 16.5 115.4 16C116.1 15.4 116.6 15.1 117 15.1C117 15.1 117.3 15 117.7 14.9C118.1 14.8 118.4 14.7 118.4 14.7C118.5 14.6 118.6 14.5 118.8 14.4C118.9 14.3 119.1 14.2 119.2 14.1C119.6 13.6 119.9 13.3 120.3 12.9ZM113.9 21.3V21.5C113.9 21.5 113.9 21.6 113.9 21.7C113.8 21.7 113.7 21.8 113.6 21.9C113.5 22 113.4 22.1 113.3 22.2C113.1 22.4 112.9 22.6 112.8 22.8C112.7 22.9 112.6 23 112.6 23.1C112.5 23.2 112.5 23.3 112.4 23.4C112.3 23.6 112.3 23.9 112.3 24C112.3 24 112.4 24.1 112.5 24.3C112.5 24.3 112.6 24.4 112.7 24.5C112.8 24.6 112.8 24.6 112.9 24.7C112.9 24.7 113 24.8 113.1 24.8C113.2 24.8 113.2 24.9 113.3 24.9C113.4 25 113.5 25 113.6 25C114.3 25 114.8 24.9 115 24.6C115 24.6 115.1 24.5 115.1 24.4C115.1 24.3 115.2 24.3 115.2 24.2L115.4 23.9C115.5 23.9 115.6 23.8 115.7 23.7C115.8 23.6 115.9 23.6 116 23.5C116.2 23.4 116.4 23.2 116.5 22.9C116.5 22.8 116.6 22.6 116.6 22.4C116.6 22.3 116.6 22.2 116.6 22.1C116.6 22 116.6 21.9 116.6 21.8V21.2C116.6 21 116.6 20.9 116.7 20.8C116.7 20.8 116.7 20.7 116.8 20.5C116.9 20.3 117 20.1 117.2 19.7C117.4 19.3 117.5 18.8 117.4 18.2C117.4 17.6 117.1 17.3 116.6 17.3C116.2 17.3 115.6 17.8 114.8 18.9C114.2 20 113.9 20.8 113.9 21.3Z" fill="white"/>
</svg>
